<svg width="50" height="50" viewBox="0 0 50 50" fill="none" xmlns="http://www.w3.org/2000/svg">
<rect width="50" height="50" rx="15" fill="#3B3B3B"/>
<g clip-path="url(#clip0_290_66)">
<path d="M24 20H26V22H24V20ZM24 24H26V30H24V24ZM25 15C19.48 15 15 19.48 15 25C15 30.52 19.48 35 25 35C30.52 35 35 30.52 35 25C35 19.48 30.52 15 25 15ZM25 33C20.59 33 17 29.41 17 25C17 20.59 20.59 17 25 17C29.41 17 33 20.59 33 25C33 29.41 29.41 33 25 33Z" fill="white"/>
</g>
<defs>
<clipPath id="clip0_290_66">
<rect width="24" height="24" fill="white" transform="translate(13 13)"/>
</clipPath>
</defs>
</svg>
