<svg width="50" height="50" viewBox="0 0 50 50" fill="none" xmlns="http://www.w3.org/2000/svg">
<rect width="50" height="50" rx="15" fill="#3B3B3B"/>
<g clip-path="url(#clip0_300_72)">
<path d="M32.5926 16H18.3704C17.0548 16 16 16.9 16 18V32C16 33.1 17.0548 34 18.3704 34H34.963C36.2667 34 37.3333 33.1 37.3333 32V20L32.5926 16ZM34.963 32H18.3704V18H31.6089L34.963 20.83V32ZM26.6667 25C24.6993 25 23.1111 26.34 23.1111 28C23.1111 29.66 24.6993 31 26.6667 31C28.6341 31 30.2222 29.66 30.2222 28C30.2222 26.34 28.6341 25 26.6667 25ZM19.5556 19H30.2222V23H19.5556V19Z" fill="white"/>
</g>
<defs>
<clipPath id="clip0_300_72">
<rect width="24" height="24" fill="white" transform="translate(13 13)"/>
</clipPath>
</defs>
</svg>
